<svg width="40" height="40" viewBox="0 0 100 100" fill="none" xmlns="http://www.w3.org/2000/svg">
  <!-- Robot Body -->
  <ellipse cx="50" cy="70" rx="25" ry="20" fill="#E53E3E"/>
  <ellipse cx="50" cy="70" rx="25" ry="20" fill="url(#bodyGradient)"/>
  
  <!-- Robot Head -->
  <rect x="25" y="25" width="50" height="35" rx="15" fill="#E53E3E"/>
  <rect x="25" y="25" width="50" height="35" rx="15" fill="url(#headGradient)"/>
  
  <!-- Screen -->
  <rect x="30" y="32" width="40" height="20" rx="8" fill="#1A202C"/>
  
  <!-- Eyes -->
  <ellipse cx="40" cy="40" rx="6" ry="4" fill="#4FD1C7"/>
  <ellipse cx="60" cy="40" rx="6" ry="4" fill="#4FD1C7"/>
  
  <!-- Smile -->
  <path d="M45 48 Q50 52 55 48" stroke="#4FD1C7" stroke-width="2" fill="none" stroke-linecap="round"/>
  
  <!-- Antenna -->
  <circle cx="50" cy="20" r="3" fill="#E53E3E"/>
  <rect x="49" y="15" width="2" height="10" fill="#E53E3E"/>
  
  <!-- Arms -->
  <ellipse cx="20" cy="50" rx="8" ry="15" fill="#E53E3E"/>
  <ellipse cx="80" cy="50" rx="8" ry="15" fill="#E53E3E"/>
  
  <!-- Gradients -->
  <defs>
    <linearGradient id="headGradient" x1="0%" y1="0%" x2="100%" y2="100%">
      <stop offset="0%" style="stop-color:#FC8181;stop-opacity:1" />
      <stop offset="100%" style="stop-color:#E53E3E;stop-opacity:1" />
    </linearGradient>
    <linearGradient id="bodyGradient" x1="0%" y1="0%" x2="100%" y2="100%">
      <stop offset="0%" style="stop-color:#FC8181;stop-opacity:1" />
      <stop offset="100%" style="stop-color:#E53E3E;stop-opacity:1" />
    </linearGradient>
  </defs>
</svg>